PathFileType	4	(X/Y/Z)	c:/Users/goper/Files/vsCode/490R/osim_files/C07/C07_Slow_03.trc
DataRate	CameraRate	NumFrames	NumMarkers	Units                	OrigDataRate	OrigDataStartFrame	OrigNumFrames
250.00	250.00	9	36	mm	250.0	2197	2929
                Frame#	Time	LPSIS			LASIS			LTH1			LTH2			LTH3			LTH4			LLFE			LMFE			LSH1			LSH2			LSH3			LSH4			LLMAL			LMMAL			LCAL			LMTP5			LTOE			LMTP1			RPSIS			RASIS			RTH1			RTH2			RTH3			RTH4			RLFE			RMFE			RSH1			RSH2			RSH3			RSH4			RLMAL			RMMAL			RCAL			RMTP1			RTOE			RMTP5		
		X1	Y1	Z1	X2	Y2	Z2	X3	Y3	Z3	X4	Y4	Z4	X5	Y5	Z5	X6	Y6	Z6	X7	Y7	Z7	X8	Y8	Z8	X9	Y9	Z9	X10	Y10	Z10	X11	Y11	Z11	X12	Y12	Z12	X13	Y13	Z13	X14	Y14	Z14	X15	Y15	Z15	X16	Y16	Z16	X17	Y17	Z17	X18	Y18	Z18	X19	Y19	Z19	X20	Y20	Z20	X21	Y21	Z21	X22	Y22	Z22	X23	Y23	Z23	X24	Y24	Z24	X25	Y25	Z25	X26	Y26	Z26	X27	Y27	Z27	X28	Y28	Z28	X29	Y29	Z29	X30	Y30	Z30	X31	Y31	Z31	X32	Y32	Z32	X33	Y33	Z33	X34	Y34	Z34	X35	Y35	Z35	X36	Y36	Z36

2197	8.78400	-3353.28394	872.99390	486.59653	0.00000	0.00000	0.00000	0.00000	0.00000	0.00000	-3021.32495	319.46082	414.16562	0.00000	0.00000	0.00000	0.00000	0.00000	0.00000	0.00000	0.00000	0.00000	-2998.72559	491.94049	414.44537	0.00000	0.00000	0.00000	0.00000	0.00000	0.00000	-3149.32153	977.44586	276.00504	0.00000	0.00000	0.00000	-3119.40723	91.30069	357.91846	-3185.13550	131.27814	356.92584	-3152.02856	43.75883	287.98843	-3139.05957	38.33759	481.72974	-3210.45679	52.10519	519.65192	-3251.20752	39.20842	474.58005	0.00000	0.00000	0.00000	-2977.21338	967.80719	464.69702	0.00000	0.00000	0.00000	0.00000	0.00000	0.00000	0.00000	0.00000	0.00000	-3191.72510	748.90356	250.81026	-3118.66650	492.24799	172.59085	0.00000	0.00000	0.00000	-2978.27271	386.45370	101.69633	-2971.98730	328.79886	92.74775	-3025.33472	349.81268	116.81458	0.00000	0.00000	0.00000	-2840.78735	205.29338	78.44514	-2849.81958	189.26447	162.14470	-2758.41284	194.02318	108.57472	-2888.46606	53.50978	177.50209	-2916.57275	56.22943	137.25626	-2889.57178	53.57977	64.76741
2198	8.78800	-3355.75928	873.55310	487.83536	0.00000	0.00000	0.00000	0.00000	0.00000	0.00000	0.00000	0.00000	0.00000	-3196.54248	749.23975	253.63080	-3161.21631	669.78864	181.06361	0.00000	0.00000	0.00000	-2999.38965	492.07861	415.59573	0.00000	0.00000	0.00000	0.00000	0.00000	0.00000	-3151.69409	977.17682	278.63300	0.00000	0.00000	0.00000	-3119.49634	91.20728	358.02426	0.00000	0.00000	0.00000	-3152.05396	43.75501	287.99973	0.00000	0.00000	0.00000	-3210.56812	51.94833	519.69287	0.00000	0.00000	0.00000	0.00000	0.00000	0.00000	-2978.65820	968.06708	466.31015	-2979.55688	752.64984	666.81396	0.00000	0.00000	0.00000	0.00000	0.00000	0.00000	0.00000	0.00000	0.00000	-3126.49268	491.90689	176.32161	0.00000	0.00000	0.00000	-2986.19434	387.91788	103.94286	-2979.06860	330.25970	94.85813	-3032.59448	350.65909	119.57027	0.00000	0.00000	0.00000	-2847.34399	209.07024	79.04027	-2855.01709	192.19972	162.60150	-2764.06079	199.66678	108.31493	-2890.22827	55.35429	177.37402	-2918.87500	57.41055	137.28195	-2892.32666	56.07861	64.75670
2199	8.79200	-3358.02588	873.97736	489.09674	0.00000	0.00000	0.00000	0.00000	0.00000	0.00000	0.00000	0.00000	0.00000	-3201.20679	749.31097	256.75217	0.00000	0.00000	0.00000	0.00000	0.00000	0.00000	-3000.34546	492.09277	416.89761	0.00000	0.00000	0.00000	0.00000	0.00000	0.00000	-3153.92407	976.81030	281.24854	0.00000	0.00000	0.00000	-3120.58374	90.77447	358.52066	0.00000	0.00000	0.00000	-3152.05640	43.70869	288.01566	0.00000	0.00000	0.00000	-3210.67285	51.73293	519.74329	0.00000	0.00000	0.00000	0.00000	0.00000	0.00000	-2980.00269	968.14423	467.96793	0.00000	0.00000	0.00000	0.00000	0.00000	0.00000	-2978.14575	614.63831	450.51859	0.00000	0.00000	0.00000	-3134.03931	491.49701	180.16054	0.00000	0.00000	0.00000	-2994.08667	389.40256	106.35275	-2986.23584	331.76028	97.18078	0.00000	0.00000	0.00000	0.00000	0.00000	0.00000	-2853.70386	212.86220	79.55294	-2860.31274	195.21660	163.12408	-2770.00537	205.21150	107.92950	-2889.51514	55.51822	175.95079	-2921.16162	58.42764	137.42146	-2894.80786	58.64848	64.56296
2200	8.79600	-3360.20239	874.42572	490.34946	0.00000	0.00000	0.00000	0.00000	0.00000	0.00000	0.00000	0.00000	0.00000	-3205.77051	749.55597	259.52945	-3173.01001	669.19147	187.37929	0.00000	0.00000	0.00000	-3001.08545	492.20889	418.09091	0.00000	0.00000	0.00000	0.00000	0.00000	0.00000	-3156.10596	976.38843	283.81647	0.00000	0.00000	0.00000	-3119.62085	90.96066	358.17145	0.00000	0.00000	0.00000	-3152.14209	43.73086	288.00137	0.00000	0.00000	0.00000	-3210.74951	51.55297	519.79230	0.00000	0.00000	0.00000	0.00000	0.00000	0.00000	0.00000	0.00000	0.00000	0.00000	0.00000	0.00000	0.00000	0.00000	0.00000	-2979.35278	614.68237	451.92484	0.00000	0.00000	0.00000	-3141.64722	491.25867	184.15045	0.00000	0.00000	0.00000	0.00000	0.00000	0.00000	-2993.17944	333.19479	99.52764	-3047.20215	352.47446	125.47784	0.00000	0.00000	0.00000	-2860.08105	216.61780	80.09406	-2866.01099	198.08884	163.76384	-2775.97876	210.87474	107.51788	-2891.58203	57.71209	175.88147	-2923.89868	59.86740	137.54048	-2898.01147	61.58022	64.52721
2201	8.80000	-3362.30762	874.75000	491.62286	0.00000	0.00000	0.00000	0.00000	0.00000	0.00000	0.00000	0.00000	0.00000	0.00000	0.00000	0.00000	-3178.63843	668.87427	190.67815	0.00000	0.00000	0.00000	-3002.14966	492.10291	419.34485	0.00000	0.00000	0.00000	0.00000	0.00000	0.00000	-3158.35669	976.02887	286.32028	0.00000	0.00000	0.00000	-3119.73267	90.87048	358.23611	0.00000	0.00000	0.00000	-3152.19531	43.73727	288.02994	0.00000	0.00000	0.00000	-3211.15405	51.17529	519.77765	0.00000	0.00000	0.00000	0.00000	0.00000	0.00000	-2985.29663	920.44971	383.82397	0.00000	0.00000	0.00000	0.00000	0.00000	0.00000	-2980.78296	614.85968	453.32053	0.00000	0.00000	0.00000	-3149.07788	491.07053	188.45651	0.00000	0.00000	0.00000	-3010.10938	392.50540	111.54844	-3000.36328	334.73529	102.02817	-3054.49243	353.40915	128.67641	0.00000	0.00000	0.00000	-2866.57715	220.39128	80.80212	-2868.57007	200.90826	163.26326	-2780.94849	217.11299	106.79523	-2893.88086	60.10098	175.80489	-2926.89673	61.08874	137.76508	-2901.45581	64.73785	64.66548
2202	8.80400	-3364.40503	875.13800	492.85150	0.00000	0.00000	0.00000	0.00000	0.00000	0.00000	0.00000	0.00000	0.00000	0.00000	0.00000	0.00000	-3184.15332	668.64789	193.97015	0.00000	0.00000	0.00000	-3002.82617	492.18292	420.45715	0.00000	0.00000	0.00000	0.00000	0.00000	0.00000	-3160.40601	975.63196	288.82242	0.00000	0.00000	0.00000	-3119.83740	90.76213	358.30750	0.00000	0.00000	0.00000	-3152.19263	43.68154	288.02991	0.00000	0.00000	0.00000	-3211.22754	50.99793	519.80591	0.00000	0.00000	0.00000	0.00000	0.00000	0.00000	0.00000	0.00000	0.00000	-2984.10693	968.61047	472.72177	0.00000	0.00000	0.00000	0.00000	0.00000	0.00000	0.00000	0.00000	0.00000	-3157.63159	490.99225	193.13036	-3114.98267	487.12619	301.39078	0.00000	0.00000	0.00000	-3007.68433	336.35648	104.64367	0.00000	0.00000	0.00000	0.00000	0.00000	0.00000	-2873.27515	224.26744	81.49452	0.00000	0.00000	0.00000	-2787.30420	222.79984	106.32800	-2896.26440	62.61665	175.58456	-2929.92798	62.41975	137.92116	-2905.08618	68.16013	65.19085
2203	8.80800	-3366.34912	875.42841	494.12424	0.00000	0.00000	0.00000	0.00000	0.00000	0.00000	-3182.57007	750.68408	197.88069	0.00000	0.00000	0.00000	-3189.52490	668.35968	197.38548	0.00000	0.00000	0.00000	-3003.51831	492.17676	421.52246	0.00000	0.00000	0.00000	0.00000	0.00000	0.00000	-3162.59692	975.22345	291.25153	0.00000	0.00000	0.00000	-3119.92944	90.67574	358.38101	0.00000	0.00000	0.00000	-3152.24146	43.64861	288.05551	-3142.62256	36.86450	482.41443	-3211.28613	50.80636	519.85657	0.00000	0.00000	0.00000	0.00000	0.00000	0.00000	-2990.70752	753.50116	673.27173	0.00000	0.00000	0.00000	0.00000	0.00000	0.00000	-2985.37573	968.64679	474.28000	0.00000	0.00000	0.00000	-3163.59766	490.78699	197.27637	-3120.91016	487.20639	305.61969	0.00000	0.00000	0.00000	-3014.95483	337.98532	107.36650	-3025.96313	395.53406	117.13303	0.00000	0.00000	0.00000	-2879.99731	228.06235	82.37280	-2882.53589	204.25525	157.83286	-2793.92358	228.53136	105.96635	-2898.92456	65.28268	175.48897	-2932.65283	62.02104	136.94717	-2908.88599	71.32980	65.45285
2204	8.81200	-3368.31104	875.70093	495.36429	0.00000	0.00000	0.00000	0.00000	0.00000	0.00000	-3186.88599	750.33795	200.85997	0.00000	0.00000	0.00000	-3194.69263	668.09113	200.84930	0.00000	0.00000	0.00000	-3004.35913	492.21783	422.58212	0.00000	0.00000	0.00000	0.00000	0.00000	0.00000	-3164.68579	974.90796	293.57788	0.00000	0.00000	0.00000	-3120.05054	90.59349	358.42706	0.00000	0.00000	0.00000	-3152.28760	43.63805	288.05649	-3142.60229	36.91621	482.37909	-3211.35156	50.68561	519.90247	0.00000	0.00000	0.00000	0.00000	0.00000	0.00000	0.00000	0.00000	0.00000	-2986.87671	968.86279	475.78262	0.00000	0.00000	0.00000	0.00000	0.00000	0.00000	0.00000	0.00000	0.00000	-3170.94580	490.85361	201.91396	-3127.36865	487.09506	308.93039	-3033.99414	397.08621	120.08353	-3022.35522	339.68219	110.20512	0.00000	0.00000	0.00000	0.00000	0.00000	0.00000	-2886.62842	231.70566	83.09988	-2887.99951	207.79704	158.33725	-2802.11011	233.42203	105.66598	-2901.70093	68.09680	175.52074	-2936.02979	63.52161	137.31494	0.00000	0.00000	0.00000
2205	8.81600	-3370.20996	875.99597	496.55057	0.00000	0.00000	0.00000	0.00000	0.00000	0.00000	0.00000	0.00000	0.00000	-3176.62402	828.04834	208.19896	0.00000	0.00000	0.00000	0.00000	0.00000	0.00000	-3004.86353	492.31659	423.41690	0.00000	0.00000	0.00000	0.00000	0.00000	0.00000	-3166.72437	974.53821	295.89172	0.00000	0.00000	0.00000	-3120.23535	90.57062	358.48676	-3186.09937	130.07938	357.81207	-3152.33179	43.61919	288.07233	-3142.66968	36.91035	482.38870	-3211.39160	50.54839	519.90985	0.00000	0.00000	0.00000	0.00000	0.00000	0.00000	-2917.33594	77.96075	66.10997	-2988.28735	969.01666	477.23987	0.00000	0.00000	0.00000	0.00000	0.00000	0.00000	0.00000	0.00000	0.00000	-3179.48779	491.76538	206.71275	-3133.60693	487.50339	313.35052	0.00000	0.00000	0.00000	-3029.92236	341.51312	113.08511	0.00000	0.00000	0.00000	0.00000	0.00000	0.00000	-2893.52759	235.45064	83.98051	-2893.39648	211.25240	159.04582	-2808.89355	239.45685	105.57658	-2907.32007	72.66471	177.05247	-2940.56152	66.37504	138.79338	0.00000	0.00000	0.00000
